<svg xmlns="http://www.w3.org/2000/svg" width="1040" height="760" viewBox="0 0 1040 760" role="img" aria-labelledby="title desc">
  <title id="title">Melya nutrition dashboard illustration</title>
  <desc id="desc">A calm nutrition dashboard illustration with meal cards, macro rings, and a plate.</desc>
  <defs>
    <linearGradient id="bg" x1="0" x2="1" y1="0" y2="1">
      <stop offset="0" stop-color="#FBF8FF"/>
      <stop offset="0.5" stop-color="#F2ECFF"/>
      <stop offset="1" stop-color="#FFF4FB"/>
    </linearGradient>
    <linearGradient id="primary" x1="0" x2="1" y1="0" y2="1">
      <stop offset="0" stop-color="#A78BFA"/>
      <stop offset="1" stop-color="#6D28D9"/>
    </linearGradient>
    <filter id="shadow" x="-20%" y="-20%" width="140%" height="140%">
      <feDropShadow dx="0" dy="22" stdDeviation="24" flood-color="#2E184E" flood-opacity="0.14"/>
    </filter>
  </defs>

  <rect width="1040" height="760" rx="42" fill="url(#bg)"/>
  <circle cx="875" cy="118" r="90" fill="#D86EA8" opacity="0.14"/>
  <circle cx="118" cy="626" r="120" fill="#8B5CF6" opacity="0.11"/>
  <circle cx="870" cy="620" r="60" fill="#667EEA" opacity="0.12"/>

  <rect x="104" y="92" width="832" height="548" rx="30" fill="#FFFFFF" stroke="#E4DBEE" filter="url(#shadow)"/>
  <rect x="104" y="92" width="832" height="82" rx="30" fill="#FBF8FF"/>
  <rect x="104" y="144" width="832" height="30" fill="#FBF8FF"/>
  <circle cx="154" cy="132" r="18" fill="#F6EEFF" stroke="#E4DBEE"/>
  <path d="M143 143V121h6l8 11 8-11h6v22h-7v-11l-6 8h-2l-6-8v11h-7Z" fill="#6D28D9"/>
  <text x="190" y="128" font-family="Arial, sans-serif" font-size="20" font-weight="800" fill="#211A2E">Melya</text>
  <text x="190" y="150" font-family="Arial, sans-serif" font-size="13" fill="#657065">Дневник питания</text>
  <rect x="690" y="116" width="90" height="30" rx="10" fill="#F1E9FF"/>
  <text x="735" y="136" text-anchor="middle" font-family="Arial, sans-serif" font-size="12" font-weight="700" fill="#6D28D9">Сегодня</text>
  <rect x="794" y="116" width="98" height="30" rx="10" fill="#FFF0F8"/>
  <text x="843" y="136" text-anchor="middle" font-family="Arial, sans-serif" font-size="12" font-weight="700" fill="#9B2C6A">Профиль</text>

  <rect x="144" y="220" width="300" height="172" rx="22" fill="#F7F1FF" stroke="#E7DDF4"/>
  <text x="174" y="262" font-family="Arial, sans-serif" font-size="18" font-weight="800" fill="#211A2E">Баланс дня</text>
  <text x="174" y="298" font-family="Arial, sans-serif" font-size="42" font-weight="800" fill="#6D28D9">1840</text>
  <text x="288" y="298" font-family="Arial, sans-serif" font-size="18" font-weight="700" fill="#657065">ккал</text>
  <rect x="174" y="330" width="218" height="12" rx="6" fill="#E6DDF3"/>
  <rect x="174" y="330" width="148" height="12" rx="6" fill="url(#primary)"/>
  <text x="174" y="368" font-family="Arial, sans-serif" font-size="14" fill="#657065">Ориентировочно за сегодня</text>

  <rect x="476" y="220" width="220" height="172" rx="22" fill="#FFFFFF" stroke="#E4DBEE"/>
  <text x="506" y="262" font-family="Arial, sans-serif" font-size="18" font-weight="800" fill="#211A2E">КБЖУ</text>
  <circle cx="586" cy="319" r="46" fill="none" stroke="#ECE5F6" stroke-width="14"/>
  <path d="M586 273a46 46 0 1 1-37 73" fill="none" stroke="#8B5CF6" stroke-width="14" stroke-linecap="round"/>
  <path d="M586 273a46 46 0 0 1 43 62" fill="none" stroke="#D86EA8" stroke-width="14" stroke-linecap="round"/>
  <text x="586" y="314" text-anchor="middle" font-family="Arial, sans-serif" font-size="20" font-weight="800" fill="#211A2E">72%</text>
  <text x="586" y="338" text-anchor="middle" font-family="Arial, sans-serif" font-size="12" fill="#657065">плана</text>

  <rect x="728" y="220" width="168" height="172" rx="22" fill="#FFF4FB" stroke="#F0D9E8"/>
  <circle cx="812" cy="297" r="48" fill="#FFFFFF" stroke="#EAD7E8"/>
  <circle cx="812" cy="297" r="34" fill="#F4E7F4"/>
  <path d="M793 303c22-34 51-22 43 8-14 20-37 15-43-8Z" fill="#8B5CF6" opacity="0.9"/>
  <path d="M789 284c24-13 47 4 34 24-21 4-37-5-34-24Z" fill="#D86EA8" opacity="0.88"/>
  <text x="812" y="365" text-anchor="middle" font-family="Arial, sans-serif" font-size="14" font-weight="700" fill="#8B2F68">Фото блюда</text>

  <rect x="144" y="424" width="232" height="142" rx="20" fill="#FFFFFF" stroke="#E4DBEE"/>
  <text x="172" y="464" font-family="Arial, sans-serif" font-size="17" font-weight="800" fill="#211A2E">Завтрак</text>
  <text x="172" y="492" font-family="Arial, sans-serif" font-size="14" fill="#657065">Овсянка, ягоды</text>
  <rect x="172" y="520" width="70" height="22" rx="8" fill="#F1E9FF"/>
  <text x="207" y="536" text-anchor="middle" font-family="Arial, sans-serif" font-size="11" font-weight="700" fill="#6D28D9">420 ккал</text>
  <rect x="256" y="520" width="78" height="22" rx="8" fill="#EEF1FF"/>
  <text x="295" y="536" text-anchor="middle" font-family="Arial, sans-serif" font-size="11" font-weight="700" fill="#667EEA">18 г белка</text>

  <rect x="404" y="424" width="232" height="142" rx="20" fill="#FFFFFF" stroke="#E4DBEE"/>
  <text x="432" y="464" font-family="Arial, sans-serif" font-size="17" font-weight="800" fill="#211A2E">Обед</text>
  <text x="432" y="492" font-family="Arial, sans-serif" font-size="14" fill="#657065">Курица, рис, салат</text>
  <rect x="432" y="520" width="70" height="22" rx="8" fill="#F1E9FF"/>
  <text x="467" y="536" text-anchor="middle" font-family="Arial, sans-serif" font-size="11" font-weight="700" fill="#6D28D9">690 ккал</text>
  <rect x="516" y="520" width="78" height="22" rx="8" fill="#EEF1FF"/>
  <text x="555" y="536" text-anchor="middle" font-family="Arial, sans-serif" font-size="11" font-weight="700" fill="#667EEA">43 г белка</text>

  <rect x="664" y="424" width="232" height="142" rx="20" fill="#FFFFFF" stroke="#E4DBEE"/>
  <text x="692" y="464" font-family="Arial, sans-serif" font-size="17" font-weight="800" fill="#211A2E">Семья</text>
  <text x="692" y="492" font-family="Arial, sans-serif" font-size="14" fill="#657065">3 активных профиля</text>
  <circle cx="710" cy="531" r="13" fill="#8B5CF6"/>
  <circle cx="738" cy="531" r="13" fill="#D86EA8"/>
  <circle cx="766" cy="531" r="13" fill="#667EEA"/>
  <text x="800" y="537" font-family="Arial, sans-serif" font-size="13" font-weight="700" fill="#657065">переключение</text>
</svg>
